<?xml version="1.0" standalone="no"?>
<!DOCTYPE svg PUBLIC "-//W3C//DTD SVG 20010904//EN"
 "http://www.w3.org/TR/2001/REC-SVG-20010904/DTD/svg10.dtd">
<svg version="1.0" xmlns="http://www.w3.org/2000/svg"
 width="70.000000pt" height="70.000000pt" viewBox="0 0 70.000000 70.000000"
 preserveAspectRatio="xMidYMid meet">
<metadata>
Created by potrace 1.14, written by Peter Selinger 2001-2017
</metadata>
<g transform="translate(0.000000,70.000000) scale(0.100000,-0.100000)"
fill="#000000" stroke="none">
<path d="M260 433 c-11 -14 -20 -36 -20 -49 0 -22 -4 -24 -50 -24 l-50 0 0 45
c0 33 -4 45 -15 45 -8 0 -15 -5 -15 -11 0 -5 -4 -8 -9 -5 -4 3 -20 0 -35 -7
-24 -11 -26 -17 -26 -74 0 -49 3 -63 15 -63 8 0 15 -4 15 -10 0 -5 9 -10 20
-10 11 0 20 -4 20 -10 0 -5 7 -10 15 -10 11 0 15 12 15 45 l0 45 65 0 65 0 -7
30 c-4 22 0 36 12 50 21 23 37 25 65 8 15 -10 22 -10 32 0 21 21 48 13 66 -18
9 -16 20 -30 25 -30 13 0 7 27 -13 53 -18 23 -26 25 -95 25 -69 0 -77 -2 -95
-25z"/>
</g>
</svg>
